<?xml version="1.0" encoding="UTF-8"?>
<svg xmlns="http://www.w3.org/2000/svg" version="1.1" viewBox="0 0 1080 1080">
  <!-- Generator: Adobe Illustrator 28.6.0, SVG Export Plug-In . SVG Version: 1.2.0 Build 709)  -->
  <g>
    <g id="Layer_1">
      <g>
        <g>
          <g>
            <polygon points="129.92 543.06 182.99 596.13 182.99 571.34 154.7 543.06 129.92 543.06"/>
            <polygon points="274.01 417.64 274.01 392.85 219.51 447.36 244.3 447.36 274.01 417.64"/>
            <polygon points="334.67 447.36 280.15 392.84 280.15 417.62 309.88 447.36 334.67 447.36"/>
            <polygon points="424.23 536.93 371.18 483.88 371.18 508.66 399.45 536.93 424.23 536.93"/>
            <polygon points="182.99 508.67 182.99 483.88 129.94 536.93 154.72 536.93 182.99 508.67"/>
            <polygon points="399.47 543.06 371.18 571.35 371.18 596.13 424.25 543.06 399.47 543.06"/>
            <polygon points="280.15 662.39 280.15 687.16 334.66 632.65 309.88 632.65 280.15 662.39"/>
            <polygon points="219.52 632.65 274.01 687.15 274.01 662.37 244.3 632.65 219.52 632.65"/>
            <rect x="271.62" y="534.54" width="10.93" height="10.93" transform="translate(-300.68 354.09) rotate(-45)"/>
            <polygon points="249.39 483.61 277.09 455.91 304.79 483.61 323.38 483.61 277.09 437.32 230.79 483.61 249.39 483.61"/>
            <polygon points="220.69 493.72 174.41 540 220.69 586.29 220.69 567.71 192.99 540 220.69 512.3 220.69 493.72"/>
            <polygon points="304.79 596.39 277.09 624.09 249.39 596.39 230.79 596.39 277.09 642.68 323.38 596.39 304.79 596.39"/>
            <polygon points="333.47 586.3 379.77 540 333.47 493.71 333.47 512.29 361.19 540 333.47 567.72 333.47 586.3"/>
            <polygon points="234.66 497.58 271.45 497.58 271.45 487.99 225.08 487.99 225.08 534.37 234.66 534.37 234.66 497.58"/>
            <polygon points="329.09 487.99 282.72 487.99 282.72 497.58 319.51 497.58 319.51 534.37 329.09 534.37 329.09 487.99"/>
            <polygon points="225.08 592.01 271.45 592.01 271.45 582.43 234.66 582.43 234.66 545.63 225.08 545.63 225.08 592.01"/>
            <polygon points="329.09 545.63 319.51 545.63 319.51 582.43 282.72 582.43 282.72 592.01 329.09 592.01 329.09 545.63"/>
            <polygon points="239.92 628.27 225.96 614.32 211.13 614.32 201.55 604.74 201.55 589.91 187.37 575.72 187.37 590.56 187.37 611.23 204.41 628.27 225.08 628.27 239.92 628.27"/>
            <polygon points="352.63 604.74 343.05 614.32 328.22 614.32 314.26 628.27 329.09 628.27 349.77 628.27 366.81 611.23 366.81 590.56 366.81 575.71 352.63 589.9 352.63 604.74"/>
            <polygon points="314.26 451.74 328.2 465.68 343.03 465.68 352.63 475.27 352.63 490.1 366.81 504.29 366.81 489.45 366.81 468.78 349.77 451.74 329.09 451.74 314.26 451.74"/>
            <polygon points="201.55 475.27 211.14 465.68 225.98 465.68 239.92 451.74 225.08 451.74 204.41 451.74 187.37 468.78 187.37 489.45 187.37 504.29 201.55 490.1 201.55 475.27"/>
          </g>
          <path d="M248.26,511.18v44.67l12.3,7.46,16.52,10.01,16.51-10.01,12.3-7.46v-44.67h-57.64ZM293.6,549.05l-16.51,10.01-16.52-10.01v-24.19h33.04v24.19Z"/>
        </g>
        <g>
          <polygon points="505.22 508.68 490.43 508.68 468.62 532.07 446.81 508.68 432.02 508.68 461.22 540 432.02 571.32 446.81 571.32 468.62 547.93 490.43 571.32 505.22 571.32 476.02 540 505.22 508.68"/>
          <path d="M589.54,523.93v6.23c0,2.45,1.98,4.43,4.43,4.43h31.53c7.24,0,13.11,5.87,13.11,13.11v10.52c0,7.23-5.87,13.1-13.11,13.1h-46.78v-10.82h44.64c2.45,0,4.43-1.98,4.43-4.43v-6.23c0-2.45-1.98-4.43-4.43-4.43h-31.53c-7.24,0-13.11-5.87-13.11-13.1v-10.53c0-7.23,5.87-13.1,13.11-13.1h46.78v10.82h-44.64c-2.45,0-4.43,1.98-4.43,4.43Z"/>
          <path d="M569.83,522.93v13.71c0,7.87-6.38,14.25-14.25,14.25h-33.57v20.43h-10.82v-46.48h10.82v15.23h31.05c3.29,0,5.95-2.66,5.95-5.95v-8.67c0-3.29-2.66-5.95-5.95-5.95h-41.87c0-2.99,1.21-5.7,3.17-7.65,1.96-1.96,4.66-3.17,7.65-3.17h33.57c7.87,0,14.25,6.38,14.25,14.25Z"/>
          <path d="M689.78,532.36v-8.47h-30.42c-7.2,0-13.04,5.84-13.04,13.04v21.36c0,7.2,5.84,13.04,13.04,13.04h30.42v-8.46h-27.31c-2.94,0-5.32-2.38-5.32-5.32v-19.86c0-2.94,2.38-5.32,5.32-5.32h27.31Z"/>
          <path d="M938.17,523.89h-26.22c-6.57,0-11.91,5.33-11.91,11.91v23.61c0,6.58,5.34,11.91,11.91,11.91h26.22c6.58,0,11.91-5.33,11.91-11.91v-23.61c0-6.58-5.33-11.91-11.91-11.91ZM940.22,558.76c0,2.44-1.97,4.42-4.41,4.42h-21.28c-2.44,0-4.42-1.98-4.42-4.42v-22.31c0-2.44,1.98-4.42,4.42-4.42h21.28c2.44,0,4.41,1.98,4.41,4.42v22.31Z"/>
          <polygon points="895.26 523.89 878.92 523.89 868.1 523.89 851.76 523.89 851.76 532.36 868.1 532.36 868.1 571.32 878.92 571.32 878.92 532.36 895.26 532.36 895.26 523.89"/>
          <path d="M803.76,523.89v8.47h30.63c2.48,0,4.48,2.01,4.48,4.48v4.82c0,2.48-2.01,4.48-4.48,4.48h-19.81v-9.53h-10.82v34.71h10.82v-16.71h22.11c7.18,0,13-5.82,13-13v-4.72c0-7.18-5.82-13-13-13h-32.93Z"/>
          <g>
            <path d="M709.33,536.61h-10.82v23.7c0,6.08,4.93,11.02,11.02,11.02h29.58v-8.46h-29.78v-11.02h29.78v-8.47h-29.78v-6.76Z"/>
            <rect x="698.51" y="523.89" width="40.6" height="8.47"/>
          </g>
          <path d="M796.86,571.32l-12.5-17.05c5.81-1.32,10.15-6.51,10.15-12.72v-4.61c0-7.21-5.85-13.06-13.06-13.06h-32.87v47.43h10.82v-16.71h14.12l12.25,16.71h11.09ZM759.4,532.36h19.7c2.54,0,4.59,2.06,4.59,4.59v4.6c0,2.54-2.06,4.59-4.59,4.59h-19.7v-13.78Z"/>
        </g>
      </g>
    </g>
  </g>
</svg>