<svg width="1600" height="520" viewBox="0 0 1600 520" fill="none" xmlns="http://www.w3.org/2000/svg" role="img" aria-labelledby="title desc">
  <title id="title">XPScerpto banner</title>
  <desc id="desc">A dark sovereign cryptographic infrastructure banner for XPScerpto.</desc>
  <defs>
    <linearGradient id="bg" x1="0" y1="0" x2="1600" y2="520" gradientUnits="userSpaceOnUse">
      <stop stop-color="#020617"/>
      <stop offset="0.45" stop-color="#0f172a"/>
      <stop offset="1" stop-color="#111827"/>
    </linearGradient>
    <linearGradient id="line" x1="180" y1="100" x2="1420" y2="420" gradientUnits="userSpaceOnUse">
      <stop stop-color="#f8fafc" stop-opacity="0.08"/>
      <stop offset="0.5" stop-color="#f8fafc" stop-opacity="0.22"/>
      <stop offset="1" stop-color="#f8fafc" stop-opacity="0.08"/>
    </linearGradient>
    <filter id="soft" x="-40%" y="-40%" width="180%" height="180%">
      <feGaussianBlur stdDeviation="20"/>
    </filter>
  </defs>

  <rect width="1600" height="520" rx="36" fill="url(#bg)"/>
  <circle cx="1320" cy="120" r="190" fill="#2563eb" opacity="0.10" filter="url(#soft)"/>
  <circle cx="240" cy="410" r="210" fill="#94a3b8" opacity="0.07" filter="url(#soft)"/>

  <g opacity="0.22">
    <path d="M180 390L350 170L560 330L750 140L980 335L1210 170L1420 350" stroke="url(#line)" stroke-width="2"/>
    <path d="M230 120H1370M230 220H1370M230 320H1370M230 420H1370" stroke="#f8fafc" stroke-opacity="0.035"/>
    <path d="M330 90V440M560 90V440M790 90V440M1020 90V440M1250 90V440" stroke="#f8fafc" stroke-opacity="0.035"/>
  </g>

  <g transform="translate(178 126)">
    <rect x="0" y="0" width="132" height="132" rx="28" fill="#020617" stroke="#e5e7eb" stroke-opacity="0.25"/>
    <path d="M38 36L66 24L94 36V70C94 92 80 105 66 112C52 105 38 92 38 70V36Z" stroke="#f8fafc" stroke-width="8" stroke-linejoin="round"/>
    <path d="M46 72H86" stroke="#f8fafc" stroke-width="8" stroke-linecap="round"/>
    <path d="M66 52V92" stroke="#f8fafc" stroke-width="8" stroke-linecap="round" opacity="0.72"/>
  </g>

  <text x="340" y="205" fill="#f8fafc" font-family="Inter, Segoe UI, Arial, sans-serif" font-size="82" font-weight="800" letter-spacing="-2">XPScerpto</text>
  <text x="342" y="270" fill="#cbd5e1" font-family="Inter, Segoe UI, Arial, sans-serif" font-size="30" font-weight="600">Governed Sovereign Cryptographic Infrastructure</text>
  <text x="342" y="324" fill="#94a3b8" font-family="Inter, Segoe UI, Arial, sans-serif" font-size="22" font-weight="500">explicit authority · provable custody · replayable evidence · evidence-gated claims</text>

  <g transform="translate(342 370)" font-family="Inter, Segoe UI, Arial, sans-serif" font-size="18" font-weight="700">
    <rect x="0" y="0" width="172" height="40" rx="20" fill="#f8fafc" fill-opacity="0.08" stroke="#f8fafc" stroke-opacity="0.12"/>
    <text x="22" y="26" fill="#e5e7eb">Fail-closed</text>
    <rect x="188" y="0" width="206" height="40" rx="20" fill="#f8fafc" fill-opacity="0.08" stroke="#f8fafc" stroke-opacity="0.12"/>
    <text x="210" y="26" fill="#e5e7eb">Module boundaries</text>
    <rect x="410" y="0" width="188" height="40" rx="20" fill="#f8fafc" fill-opacity="0.08" stroke="#f8fafc" stroke-opacity="0.12"/>
    <text x="432" y="26" fill="#e5e7eb">Claim discipline</text>
  </g>
</svg>
